<svg width="357" height="388" viewBox="0 0 357 388" fill="none" xmlns="http://www.w3.org/2000/svg">
<rect x="69" y="14" width="218" height="319" rx="11" stroke="#ECECEC" stroke-width="8"/>
<path d="M222.072 110.002C228.044 118.093 231.03 126.762 231.03 136.009C231.03 142.559 229.585 148.434 226.696 153.636C223.806 158.837 219.279 164.712 213.114 171.262C207.72 176.849 203.771 182.147 201.267 187.155C198.762 191.971 197.125 196.498 196.354 200.737C195.777 204.782 195.102 211.235 194.332 220.097C194.332 224.528 192.791 227.803 189.708 229.922C186.626 231.848 183.447 232.811 180.173 232.811C171.504 232.811 167.169 227.61 167.169 217.207C167.169 211.621 168.132 204.975 170.059 197.269C171.985 189.563 175.549 181.183 180.75 172.129C182.484 169.047 184.7 165.965 187.397 162.882C190.286 159.8 192.116 157.777 192.887 156.814C195.969 153.539 198.57 150.168 200.689 146.7C202.808 143.04 203.867 139.862 203.867 137.165C203.867 134.082 203.386 131.674 202.423 129.941C201.652 128.207 200.4 126.28 198.666 124.161C196.162 121.272 192.887 118.96 188.841 117.226C184.796 115.492 181.039 114.626 177.572 114.626C171.985 114.626 166.784 115.685 161.968 117.804C157.344 119.731 153.588 122.331 150.698 125.606C148.001 128.688 146.653 131.867 146.653 135.142C146.653 140.536 147.712 144.581 149.831 147.278C151.95 149.783 153.01 152.094 153.01 154.213C153.01 155.369 152.721 156.718 152.143 158.259C149.831 163.653 145.882 166.35 140.296 166.35C133.168 166.35 127.967 163.653 124.692 158.259C121.417 152.865 119.779 146.026 119.779 137.743C119.779 129.844 122.284 122.331 127.292 115.203C132.301 107.883 139.621 101.911 149.253 97.2878C158.886 92.6643 170.348 90.3526 183.64 90.3526C191.346 90.3526 198.57 92.0864 205.312 95.554C212.055 98.8289 217.641 103.645 222.072 110.002ZM180.173 243.792C185.952 243.792 190.575 245.815 194.043 249.86C196.932 252.75 198.377 256.699 198.377 261.708C198.377 265.946 196.354 269.51 192.309 272.399C188.263 275.096 183.833 276.445 179.017 276.445C175.549 276.445 172.178 275.482 168.903 273.555C164.857 270.666 162.835 265.561 162.835 258.24C162.835 254.387 164.569 251.016 168.036 248.126C171.696 245.237 175.742 243.792 180.173 243.792Z" fill="#ECECEC"/>
<circle cx="17.5547" cy="257.555" r="17.5547" fill="#ECECEC"/>
<line x1="16.9792" y1="262.735" x2="16.9792" y2="382.452" stroke="#ECECEC" stroke-width="9.78458" stroke-linecap="round"/>
<circle cx="339.445" cy="257.555" r="17.5547" fill="#ECECEC"/>
<line x1="338.87" y1="262.735" x2="338.87" y2="382.452" stroke="#ECECEC" stroke-width="9.78458" stroke-linecap="round"/>
<path d="M17.001 258C79.1163 287.508 115.231 311.648 177.568 311.648C239.906 311.648 338.514 258 338.514 258" stroke="#ECECEC" stroke-width="4.53367"/>
</svg>
